<?xml version="1.0" encoding="iso-8859-1"?>
<!-- Generator: Adobe Illustrator 18.0.0, SVG Export Plug-In . SVG Version: 6.00 Build 0)  -->
<!DOCTYPE svg PUBLIC "-//W3C//DTD SVG 1.1//EN" "http://www.w3.org/Graphics/SVG/1.1/DTD/svg11.dtd">
<svg version="1.1" id="Capa_1" xmlns="http://www.w3.org/2000/svg" xmlns:xlink="http://www.w3.org/1999/xlink" x="0px" y="0px"
	 viewBox="0 0 57 57" style="enable-background:new 0 0 57 57;" xml:space="preserve">
<g fill="#93cdff">
	<path d="M54,35.705V12.176C54,5.462,48.538,0,41.824,0H12.176C5.462,0,0,5.462,0,12.176v29.648C0,48.538,5.462,54,12.176,54h23.529
		c2.253,1.872,5.144,3,8.295,3c7.168,0,13-5.832,13-13C57,40.849,55.872,37.958,54,35.705z M12.176,52C6.565,52,2,47.436,2,41.824
		V12.176C2,6.564,6.565,2,12.176,2h29.648C47.435,2,52,6.564,52,12.176v21.592c-0.075-0.059-0.155-0.109-0.231-0.166
		c-0.21-0.158-0.42-0.315-0.64-0.46c-0.023-0.015-0.048-0.028-0.071-0.043c-0.514-0.334-1.055-0.628-1.616-0.888
		c-0.076-0.035-0.15-0.075-0.226-0.109c-0.22-0.097-0.445-0.18-0.671-0.265c-0.143-0.054-0.286-0.109-0.431-0.158
		c-0.207-0.069-0.416-0.13-0.627-0.189c-0.179-0.05-0.359-0.097-0.54-0.139c-0.191-0.044-0.381-0.087-0.575-0.123
		c-0.23-0.043-0.462-0.076-0.695-0.106c-0.156-0.02-0.311-0.045-0.469-0.06C44.808,31.023,44.405,31,44,31
		c-6.134,0-11.277,4.276-12.637,10H27c-0.552,0-1,0.447-1,1s0.448,1,1,1h4.051C31.025,43.331,31,43.663,31,44
		c0,0.405,0.024,0.808,0.061,1.208c0.015,0.159,0.039,0.314,0.06,0.471c0.03,0.231,0.063,0.462,0.106,0.69
		c0.036,0.195,0.079,0.388,0.124,0.58c0.042,0.179,0.088,0.356,0.137,0.533c0.06,0.214,0.121,0.426,0.192,0.635
		c0.047,0.141,0.101,0.279,0.153,0.418c0.086,0.23,0.171,0.459,0.269,0.683c0.029,0.066,0.064,0.13,0.094,0.196
		c0.267,0.58,0.571,1.14,0.918,1.67c0.009,0.014,0.017,0.029,0.026,0.042c0.146,0.221,0.304,0.432,0.462,0.644
		c0.057,0.076,0.107,0.155,0.165,0.23H12.176z M44,55c-2.821,0-5.39-1.077-7.339-2.83c-0.242-0.217-0.473-0.443-0.693-0.679
		c-0.049-0.052-0.096-0.105-0.144-0.158c-0.209-0.233-0.407-0.473-0.595-0.721c-0.043-0.057-0.087-0.114-0.129-0.172
		c-0.185-0.256-0.359-0.519-0.521-0.789c-0.033-0.054-0.067-0.107-0.099-0.163c-0.164-0.283-0.313-0.573-0.451-0.869
		c-0.022-0.047-0.046-0.092-0.067-0.14c-0.139-0.309-0.261-0.625-0.37-0.946c-0.013-0.04-0.03-0.078-0.043-0.117
		c-0.107-0.326-0.196-0.659-0.273-0.995c-0.009-0.039-0.022-0.077-0.03-0.117c-0.072-0.331-0.123-0.667-0.163-1.005
		c-0.006-0.047-0.016-0.093-0.021-0.141C33.021,44.776,33,44.39,33,44c0-6.065,4.935-11,11-11c0.39,0,0.777,0.021,1.161,0.063
		c0.045,0.005,0.088,0.015,0.133,0.021c0.34,0.041,0.679,0.093,1.012,0.165c0.038,0.008,0.074,0.021,0.112,0.029
		c0.338,0.077,0.672,0.166,1,0.274c0.037,0.012,0.073,0.027,0.11,0.04c0.324,0.11,0.643,0.234,0.955,0.374
		c0.044,0.02,0.087,0.043,0.131,0.063c0.299,0.139,0.592,0.29,0.878,0.455c0.052,0.03,0.103,0.063,0.154,0.094
		c0.273,0.165,0.539,0.339,0.798,0.527c0.055,0.04,0.109,0.081,0.163,0.122c0.252,0.19,0.496,0.391,0.732,0.603
		c0.05,0.045,0.1,0.089,0.148,0.135c0.239,0.223,0.469,0.458,0.69,0.704C53.926,38.616,55,41.182,55,44C55,50.065,50.065,55,44,55z"
		/>
	<path d="M50,43h-5v-5c0-0.553-0.448-1-1-1s-1,0.447-1,1v5h-5c-0.552,0-1,0.447-1,1s0.448,1,1,1h5v5c0,0.553,0.448,1,1,1
		s1-0.447,1-1v-5h5c0.552,0,1-0.447,1-1S50.552,43,50,43z"/>
	<path d="M27,14h18c0.552,0,1-0.447,1-1s-0.448-1-1-1H27c-0.552,0-1,0.447-1,1S26.448,14,27,14z"/>
	<path d="M27,28h18c0.552,0,1-0.447,1-1s-0.448-1-1-1H27c-0.552,0-1,0.447-1,1S26.448,28,27,28z"/>
	<path d="M19.169,7.35l-6.248,7.288L9.1,11.771c-0.442-0.331-1.068-0.242-1.4,0.2c-0.332,0.441-0.242,1.068,0.2,1.399l4.571,3.429
		c0.18,0.135,0.39,0.2,0.6,0.2c0.283,0,0.563-0.119,0.76-0.35l6.857-8c0.359-0.419,0.311-1.05-0.108-1.409
		C20.161,6.882,19.529,6.93,19.169,7.35z"/>
	<path d="M19.169,21.35l-6.248,7.288L9.1,25.771c-0.442-0.331-1.068-0.242-1.4,0.2c-0.332,0.441-0.242,1.068,0.2,1.399l4.571,3.429
		c0.18,0.135,0.39,0.2,0.6,0.2c0.283,0,0.563-0.119,0.76-0.35l6.857-8c0.359-0.419,0.311-1.05-0.108-1.409
		C20.161,20.882,19.529,20.93,19.169,21.35z"/>
	<path d="M19.169,36.35l-6.248,7.287L9.1,40.771c-0.442-0.33-1.068-0.242-1.4,0.2c-0.332,0.441-0.242,1.068,0.2,1.399l4.571,3.429
		c0.18,0.135,0.39,0.2,0.6,0.2c0.283,0,0.563-0.119,0.76-0.35l6.857-7.999c0.359-0.419,0.311-1.05-0.108-1.409
		C20.161,35.882,19.529,35.93,19.169,36.35z"/>
</g>
<g>
</g>
<g>
</g>
<g>
</g>
<g>
</g>
<g>
</g>
<g>
</g>
<g>
</g>
<g>
</g>
<g>
</g>
<g>
</g>
<g>
</g>
<g>
</g>
<g>
</g>
<g>
</g>
<g>
</g>
</svg>
