<?xml version="1.0" standalone="no"?>
<!DOCTYPE svg PUBLIC "-//W3C//DTD SVG 20010904//EN"
 "http://www.w3.org/TR/2001/REC-SVG-20010904/DTD/svg10.dtd">
<svg version="1.0" xmlns="http://www.w3.org/2000/svg"
 width="760.000000pt" height="760.000000pt" viewBox="0 0 760.000000 760.000000"
 preserveAspectRatio="xMidYMid meet">
<metadata>
Created by potrace 1.14, written by Peter Selinger 2001-2017
</metadata>
<g transform="translate(0.000000,760.000000) scale(0.100000,-0.100000)"
fill="#000000" stroke="none">
<path d="M3529 7556 c-2 -2 -40 -7 -84 -10 -44 -4 -98 -9 -120 -12 -22 -3 -53
-7 -70 -9 -49 -5 -128 -17 -150 -22 -11 -2 -31 -6 -45 -8 -50 -8 -133 -26
-210 -46 -25 -6 -49 -12 -55 -13 -5 -2 -30 -8 -55 -15 -25 -7 -45 -13 -45 -12
0 1 -47 -15 -105 -35 -58 -19 -109 -37 -115 -38 -5 -2 -19 -7 -30 -11 -11 -4
-51 -21 -90 -36 -38 -15 -110 -46 -160 -69 -49 -23 -107 -48 -127 -57 -21 -9
-38 -20 -38 -25 0 -4 -6 -8 -13 -8 -19 0 -199 -104 -322 -186 -204 -136 -215
-144 -449 -344 -49 -42 -247 -242 -306 -309 -30 -35 -60 -68 -66 -75 -15 -16
-156 -199 -174 -226 -8 -12 -21 -28 -28 -36 -6 -7 -12 -15 -12 -18 0 -3 -20
-34 -45 -69 -25 -36 -45 -67 -45 -71 0 -3 -20 -36 -44 -73 -40 -63 -206 -382
-206 -398 0 -3 -11 -30 -24 -58 -24 -52 -38 -88 -40 -97 -1 -6 -25 -68 -36
-95 -11 -24 -60 -177 -64 -196 -6 -30 -19 -74 -24 -84 -4 -5 -7 -16 -8 -25 0
-8 -7 -35 -14 -60 -7 -25 -14 -52 -15 -60 -3 -16 -11 -58 -20 -100 -16 -71
-35 -187 -41 -245 -2 -22 -6 -53 -9 -70 -26 -163 -27 -680 0 -865 2 -19 7 -55
10 -80 2 -25 7 -58 10 -75 15 -87 17 -102 22 -125 11 -65 45 -217 50 -230 3
-8 8 -24 10 -35 4 -21 60 -209 70 -235 3 -8 7 -19 8 -25 6 -21 95 -246 119
-299 14 -31 26 -60 26 -64 0 -5 6 -14 13 -21 6 -6 12 -15 12 -19 1 -11 84
-172 121 -233 19 -31 34 -62 34 -68 0 -6 4 -11 8 -11 5 0 15 -12 23 -27 8 -16
33 -56 56 -91 24 -35 43 -67 43 -72 0 -4 3 -10 8 -12 4 -2 38 -46 77 -98 38
-52 72 -97 75 -100 3 -3 18 -21 34 -40 90 -112 257 -286 397 -415 75 -69 239
-198 354 -278 61 -42 115 -80 120 -84 11 -8 18 -12 145 -84 41 -23 77 -45 80
-48 5 -6 221 -115 230 -116 3 -1 28 -11 55 -24 99 -45 295 -119 395 -149 36
-10 90 -27 120 -36 30 -9 64 -18 75 -21 11 -2 62 -13 114 -24 124 -27 254 -51
316 -57 28 -3 61 -7 75 -9 75 -14 224 -20 465 -20 249 0 335 4 485 21 30 4 67
7 83 8 15 0 27 5 27 9 0 5 4 6 9 3 8 -5 46 1 191 29 14 3 49 10 77 16 29 5 55
10 58 10 2 0 23 6 45 14 22 8 40 12 40 8 0 -3 7 0 15 7 8 7 15 10 15 7 0 -3
26 3 58 14 31 11 59 20 62 19 15 0 173 55 290 102 111 45 322 144 395 186 17
9 57 33 90 51 128 73 397 258 461 316 6 5 33 28 60 50 201 166 450 430 612
650 28 39 56 76 62 82 6 7 8 13 5 13 -4 0 0 7 8 15 26 26 217 340 206 340 -2
0 5 14 17 30 11 17 31 53 44 80 12 28 38 82 56 120 35 76 83 191 89 215 2 8
16 47 31 85 14 39 27 77 29 85 2 8 13 47 25 85 13 39 24 77 25 85 2 8 4 15 5
15 6 0 63 261 74 340 4 23 9 52 12 65 3 14 7 45 9 70 3 25 7 61 10 80 26 182
26 742 0 864 -2 11 -7 44 -9 71 -3 28 -8 64 -11 80 -3 17 -7 44 -10 60 -13 79
-53 262 -71 325 -8 30 -17 63 -19 72 -23 99 -174 502 -207 550 -10 14 -18 31
-18 36 0 6 -13 35 -28 64 -16 29 -50 92 -76 140 -26 48 -51 90 -56 93 -6 4 -8
10 -5 14 2 5 -4 16 -15 26 -11 10 -20 23 -20 30 0 6 -8 20 -18 31 -9 10 -23
31 -29 47 -7 15 -17 27 -23 27 -5 0 -10 6 -10 13 0 7 -9 23 -20 35 -11 12 -20
24 -20 27 0 6 -54 77 -77 103 -7 7 -13 17 -13 20 0 4 -10 18 -23 32 -12 14
-42 50 -67 80 -120 147 -346 372 -500 496 -19 16 -40 33 -47 39 -63 52 -164
125 -172 125 -5 0 -11 4 -13 8 -4 11 -156 112 -168 112 -5 0 -10 4 -12 8 -1 4
-25 21 -53 36 -27 16 -68 39 -90 51 -60 34 -212 112 -232 118 -10 4 -25 11
-33 16 -25 16 -299 127 -335 136 -5 1 -17 5 -25 8 -8 3 -33 11 -55 17 -22 6
-47 14 -55 17 -8 4 -18 7 -22 8 -5 2 -9 3 -10 5 -2 1 -12 3 -23 5 -11 2 -54
13 -95 24 -79 22 -305 69 -362 76 -18 2 -44 6 -58 9 -14 2 -54 7 -90 11 -36 4
-78 9 -95 11 -38 6 -651 14 -656 10z"/>
</g>
</svg>
